<svg xmlns="http://www.w3.org/2000/svg" xmlns:xlink="http://www.w3.org/1999/xlink" id="Layer_1" x="0px" y="0px" viewBox="0 0 512 512" style="enable-background:new 0 0 512 512;" xml:space="preserve"><style type="text/css">	.st0{fill:#212133;}</style><g id="media-monitor-screen-Digital_Marketing">	<path class="st0" d="M486.4,110.9h-17.1v-8.5h8.5c14.1,0,25.6-11.5,25.6-25.6S492,51.2,477.9,51.2l0,0h-8.5V8.5  c0-2.7-1.3-5.3-3.5-6.8c-2.1-1.6-4.9-2.1-7.5-1.4L348.6,34.1h-58.5c-4.7,0-8.5,3.8-8.5,8.5v8.5h-17.1c-4.7,0-8.5,3.8-8.5,8.5v34.1  c0,4.7,3.8,8.5,8.5,8.5h17.1v8.5h-51.2V34.1c0-4.7-3.8-8.5-8.5-8.5H51.2c-4.7,0-8.5,3.8-8.5,8.5v76.8H25.6  C11.5,111,0,122.4,0,136.5v273.1c0,14.1,11.5,25.6,25.6,25.6h196.3v25.6h-51.2c-4.7,0-8.5,3.8-8.5,8.5v34.1c0,4.7,3.8,8.5,8.5,8.5  h170.7c4.7,0,8.5-3.8,8.5-8.5v-34.1c0-4.7-3.8-8.5-8.5-8.5h-51.2v-25.6h196.3c14.1,0,25.6-11.5,25.6-25.6V136.5  C512,122.4,500.5,111,486.4,110.9z M469.3,68.3h8.5c4.7,0,8.5,3.8,8.5,8.5s-3.8,8.5-8.5,8.5h-8.5V68.3z M358.4,49l93.9-28.9v113.5  l-93.9-28.9V49z M298.7,51.2h42.7v51.2h-42.7V51.2z M323,119.5l-6.1,42.7h-9.6v-42.7H323z M273.1,85.3v-17h8.5v17.1L273.1,85.3  L273.1,85.3z M59.7,42.7h153.6v119.5H59.7V42.7z M332.8,477.9V495H179.2v-17.1H332.8z M238.9,460.8v-25.6H273v25.6H238.9z   M494.9,409.6c0,4.7-3.8,8.5-8.5,8.5H25.6c-4.7,0-8.5-3.8-8.5-8.5v-8.5H495v8.5H494.9z M494.9,384H17.1V136.5  c0-4.7,3.8-8.5,8.5-8.5h17.1v42.7c0,4.7,3.8,8.5,8.5,8.5h170.7c4.7,0,8.5-3.8,8.5-8.5V128h59.7v42.7c0,4.7,3.8,8.5,8.5,8.5h25.6  c4.3,0,7.9-3.1,8.4-7.3l7.5-52.4h8.4l109.7,33.8c0.8,0.2,1.6,0.4,2.5,0.3c4.7-0.1,8.5-3.8,8.5-8.5V128h17.1c4.7,0,8.5,3.8,8.5,8.5  L494.9,384z"></path>	<path class="st0" d="M42.7,366.9h221.9c4.7,0,8.5-3.8,8.5-8.5V221.9c0-4.7-3.8-8.5-8.5-8.5H42.7c-4.7,0-8.5,3.8-8.5,8.5v136.5  C34.1,363.1,38,366.9,42.7,366.9z M51.2,349.9V237.1l97.9,60.3c2.7,1.7,6.2,1.7,8.9,0l97.9-60.3v112.7H51.2V349.9z M72.8,230.4  h161.6l-80.8,49.7L72.8,230.4z"></path>	<path class="st0" d="M298.7,315.7h17.1v25.6c0,4.7,3.8,8.5,8.5,8.5h145.1c4.7,0,8.5-3.8,8.5-8.5V238.9c0-4.7-3.8-8.5-8.5-8.5h-8.5  v-25.6c0-4.7-3.8-8.5-8.5-8.5H298.7c-4.7,0-8.5,3.8-8.5,8.5v102.4C290.1,311.9,294,315.7,298.7,315.7z M460.8,332.8h-128v-85.3h128  V332.8z M307.2,213.3h136.5v17.1H324.3c-4.7,0-8.5,3.8-8.5,8.5v59.7h-8.5L307.2,213.3L307.2,213.3z"></path>	<path class="st0" d="M349.9,264.5H367v17.1h-17.1V264.5z"></path>	<path class="st0" d="M384,264.5h59.7v17.1H384V264.5z"></path>	<path class="st0" d="M349.9,298.7H384v17.1h-34.1V298.7z"></path>	<path class="st0" d="M401.1,298.7h42.7v17.1h-42.7V298.7z"></path>	<path class="st0" d="M115,135.3c2.5,1.6,5.7,1.7,8.3,0.4l51.2-25.6c4.2-2.1,5.9-7.2,3.8-11.4c-0.8-1.7-2.2-3-3.8-3.8l-51.2-25.6  c-4.2-2.1-9.3-0.4-11.4,3.8c-0.6,1.2-0.9,2.5-0.9,3.8V128C110.9,131,112.5,133.7,115,135.3z M128,90.6l23.6,11.8L128,114.2V90.6z"></path></g></svg>