<svg xmlns="http://www.w3.org/2000/svg" viewBox="0 0 64 64" width="512" height="512"><g id="setting"><path d="M24.51,41.7c.11-.23.21-.47.3-.71a1,1,0,0,1,.82-.67l2.37-.3V37.98l-2.37-.3a1,1,0,0,1-.82-.67c-.09-.24-.19-.48-.3-.71a.979.979,0,0,1,.11-1.05l1.47-1.89-1.45-1.45-1.89,1.47a.979.979,0,0,1-1.05.11c-.23-.11-.47-.21-.71-.3a1,1,0,0,1-.67-.82L20.02,30H17.98l-.3,2.37a1,1,0,0,1-.67.82c-.24.09-.48.19-.71.3a.979.979,0,0,1-1.05-.11l-1.89-1.47-1.45,1.45,1.47,1.89a.979.979,0,0,1,.11,1.05c-.11.23-.21.47-.3.71a1,1,0,0,1-.82.67l-2.37.3v2.04l2.37.3a1,1,0,0,1,.82.67c.09.24.19.48.3.71a.979.979,0,0,1-.11,1.05l-1.47,1.89,1.45,1.45,1.89-1.47a.979.979,0,0,1,1.05-.11c.23.11.47.21.71.3a1,1,0,0,1,.67.82l.3,2.37h2.04l.3-2.37a1,1,0,0,1,.67-.82c.24-.09.48-.19.71-.3a.979.979,0,0,1,1.05.11l1.89,1.47,1.45-1.45-1.47-1.89A.979.979,0,0,1,24.51,41.7ZM19,44a5,5,0,1,1,5-5A5.006,5.006,0,0,1,19,44Z"></path><circle cx="19" cy="39" r="3"></circle><circle cx="45" cy="19" r="3"></circle><path d="M43.68,12.37a1,1,0,0,1-.67.82c-.24.09-.48.19-.71.3a.979.979,0,0,1-1.05-.11l-1.89-1.47-1.45,1.45,1.47,1.89a.979.979,0,0,1,.11,1.05c-.11.23-.21.47-.3.71a1,1,0,0,1-.82.67l-2.37.3v2.04l2.37.3a1,1,0,0,1,.82.67c.09.24.19.48.3.71a.979.979,0,0,1-.11,1.05l-1.47,1.89,1.45,1.45,1.89-1.47a.979.979,0,0,1,1.05-.11c.23.11.47.21.71.3a1,1,0,0,1,.67.82l.3,2.37h2.04l.3-2.37a1,1,0,0,1,.67-.82c.24-.09.48-.19.71-.3a.979.979,0,0,1,1.05.11l1.89,1.47,1.45-1.45-1.47-1.89a.979.979,0,0,1-.11-1.05c.11-.23.21-.47.3-.71a1,1,0,0,1,.82-.67l2.37-.3V17.98l-2.37-.3a1,1,0,0,1-.82-.67c-.09-.24-.19-.48-.3-.71a.979.979,0,0,1,.11-1.05l1.47-1.89-1.45-1.45-1.89,1.47a.979.979,0,0,1-1.05.11c-.23-.11-.47-.21-.71-.3a1,1,0,0,1-.67-.82L46.02,10H43.98ZM50,19a5,5,0,1,1-5-5A5.006,5.006,0,0,1,50,19Z"></path><path d="M37,56v1a1,1,0,0,1-1,1H28a1,1,0,0,1-1-1V56H4.18l.53,3.16a.989.989,0,0,0,.98.84H58.31a.989.989,0,0,0,.98-.84L59.82,56Z"></path><path d="M29,55v1h6V55a1,1,0,0,1,1-1H58V21a1,1,0,0,0-1-1H56v.9a1.013,1.013,0,0,1-.88,1l-2.4.3,1.49,1.91a1,1,0,0,1-.09,1.32l-2.69,2.69a.994.994,0,0,1-1.32.09L48.2,26.72l-.3,2.4a1.013,1.013,0,0,1-1,.88H43.1a1.013,1.013,0,0,1-1-.88l-.3-2.4-1.91,1.49a.994.994,0,0,1-1.32-.09l-2.69-2.69a1,1,0,0,1-.09-1.32l1.49-1.91-2.4-.3a1.013,1.013,0,0,1-.88-1V20H7a1,1,0,0,0-1,1V54H28A1,1,0,0,1,29,55Zm27-3H36V50H56ZM36,48V46h6v2Zm20,0H44V46H56Zm0-6v2H36V42ZM32,38H44V32h2v7a1,1,0,0,1-1,1H32ZM18,22h2v4H18Zm6.11,26.21L22.2,46.72l-.3,2.4a1.013,1.013,0,0,1-1,.88H17.1a1.013,1.013,0,0,1-1-.88l-.3-2.4-1.91,1.49a.994.994,0,0,1-1.32-.09L9.88,45.43a1,1,0,0,1-.09-1.32l1.49-1.91-2.4-.3a1.013,1.013,0,0,1-.88-1V37.1a1.013,1.013,0,0,1,.88-1l2.4-.3L9.79,33.89a1,1,0,0,1,.09-1.32l2.69-2.69a.994.994,0,0,1,1.32-.09l1.91,1.49.3-2.4a1.013,1.013,0,0,1,1-.88h3.8a1.013,1.013,0,0,1,1,.88l.3,2.4,1.91-1.49a1,1,0,0,1,1.32.09l2.69,2.69a1,1,0,0,1,.09,1.32L26.72,35.8l2.4.3a1.013,1.013,0,0,1,.88,1v3.8a1.013,1.013,0,0,1-.88,1l-2.4.3,1.49,1.91a1,1,0,0,1-.09,1.32l-2.69,2.69A1,1,0,0,1,24.11,48.21Z"></path><path d="M20,4H44V6h2V3a1,1,0,0,0-1-1H19a1,1,0,0,0-1,1V16h2Z"></path></g></svg>