<svg xmlns="http://www.w3.org/2000/svg" id="Layer_1" height="512" viewBox="0 0 144 144" width="512"><path d="m111.281 90.048c-1.172-1.172-3.07-1.172-4.242 0l-6.28 6.28-7.905-7.904c7.945-9.019 12.78-20.84 12.78-33.776 0-28.214-22.953-51.167-51.167-51.167s-51.168 22.953-51.168 51.166 22.953 51.168 51.167 51.168c13.124 0 25.105-4.971 34.172-13.123l7.878 7.878-6.28 6.28c-.562.562-.879 1.325-.879 2.121s.316 1.559.879 2.121l25.068 25.067c2.811 2.812 6.547 4.359 10.522 4.359s7.712-1.548 10.522-4.359c5.802-5.802 5.802-15.242 0-21.045l-25.068-25.067zm-56.814 3.739c-21.582 0-39.14-17.558-39.14-39.14s17.557-39.139 39.139-39.139 39.14 17.558 39.14 39.14-17.558 39.14-39.14 39.14z"></path><path d="m54.466 21.508c-18.273 0-33.14 14.866-33.14 33.14s14.866 33.14 33.14 33.14 33.14-14.866 33.14-33.14-14.866-33.14-33.14-33.14zm21.981 36.14c-1.657 0-3-1.343-3-3 0-10.467-8.515-18.981-18.981-18.981-1.657 0-3-1.343-3-3s1.343-3 3-3c13.774 0 24.981 11.207 24.981 24.981 0 1.657-1.343 3-3 3z"></path></svg>