<svg xmlns="http://www.w3.org/2000/svg" id="Layer_1" height="512" viewBox="0 0 500 500" width="512"><path d="m429.95 470.71h-359.9c3.09-8.97 11.61-15.43 21.61-15.43h108.44 99.79 108.44c10.01 0 18.53 6.46 21.62 15.43zm-310.99-352.92 24.35-14.06-24.35-14.06zm316.37 86.45v99.26h20.29v-99.26zm-308.52 5.61v68.62c0 .22-.2.43-.43.43h-101.95c-.22 0-.43-.2-.43-.43v-68.62c0-.22.2-.43.43-.43h19.21c8.41 0 15.26-6.84 15.26-15.26v-3.22c0-.22.2-.43.43-.43h32.15c.22 0 .43.2.43.43v3.22c0 8.41 6.84 15.26 15.26 15.26h19.21c.23 0 .43.2.43.43zm-17.17 32.5c0-22.24-17.22-33.87-34.23-33.87s-34.23 11.63-34.23 33.87c0 13.1 5.93 21.06 10.91 25.42 6.22 5.45 14.5 8.45 23.33 8.45 17 0 34.22-11.63 34.22-33.87zm-20.68-14.27c-3.46-3.03-8.4-4.77-13.55-4.77-9.66 0-19.4 5.89-19.4 19.04s9.75 19.04 19.4 19.04c9.66 0 19.4-5.89 19.4-19.04 0-6.06-1.97-10.86-5.85-14.27zm285.59 10.98v64.44h20.29v-64.44zm-60.78 31.5v32.94h20.29v-32.94zm186.23-205.89v238.83h-29.55v-106.67c0-4.1-3.32-7.42-7.42-7.42h-35.12c-4.1 0-7.42 3.32-7.42 7.42v106.67h-10.83v-71.86c0-4.1-3.32-7.42-7.42-7.42h-35.12c-4.1 0-7.42 3.32-7.42 7.42v71.86h-10.83v-40.36c0-4.1-3.32-7.42-7.42-7.42h-35.12c-4.1 0-7.42 3.32-7.42 7.42v40.36h-59.59-13.06v-13.04c30.26-3.67 53.79-29.5 53.79-60.74 0-4.1-3.32-7.42-7.42-7.42s-7.42 3.32-7.42 7.42c0 25.57-20.8 46.37-46.37 46.37s-46.37-20.8-46.37-46.37c0-4.1-3.32-7.42-7.42-7.42s-7.42 3.32-7.42 7.42c0 31.24 23.53 57.06 53.79 60.74v13.04h-13.06-198.36v-238.83c0-19.51 15.87-35.38 35.38-35.38h429.23c19.52 0 35.39 15.87 35.39 35.38zm-358.36 145.18c0-8.41-6.84-15.26-15.26-15.26h-19.21c-.22 0-.43-.2-.43-.43v-3.22c0-8.41-6.84-15.26-15.26-15.26h-32.15c-8.41 0-15.26 6.84-15.26 15.26v3.22c0 .22-.2.43-.43.43h-19.21c-8.41 0-15.26 6.84-15.26 15.26v68.62c0 8.41 6.84 15.26 15.26 15.26h101.95c8.41 0 15.26-6.84 15.26-15.26zm52.47-106.12c0-20.08-7.21-37.02-20.86-48.98-11.99-10.52-28.05-16.31-45.22-16.31s-33.23 5.79-45.22 16.31c-13.65 11.97-20.86 28.91-20.86 48.98s7.21 37.02 20.86 48.98c11.99 10.52 28.05 16.31 45.22 16.31s33.23-5.79 45.22-16.31c13.65-11.96 20.86-28.9 20.86-48.98zm65.93 83.79c0-26.86-20.71-40.91-41.17-40.91s-41.17 14.05-41.17 40.91v41.21c0 12.54 4.52 23.15 13.06 30.68 7.48 6.59 17.46 10.23 28.11 10.23 20.46 0 41.17-14.05 41.17-40.91zm143.18-133.71c0-2.48-1.24-4.79-3.3-6.17s-4.67-1.63-6.96-.68l-68.01 28.26h-26.33c-13.06 0-24.04 6.05-30.14 16.61-6.53 11.31-6.53 25.93 0 37.24 5.39 9.34 14.63 15.15 25.73 16.36l4.51 39.7c.29 2.55 1.88 4.77 4.2 5.87l20.34 9.6c1.01.47 2.09.71 3.17.71 1.38 0 2.76-.39 3.97-1.15 2.15-1.36 3.45-3.72 3.45-6.26v-44.52l59.12 24.56c.92.38 1.88.57 2.84.57 1.44 0 2.88-.42 4.12-1.25 2.06-1.38 3.3-3.69 3.3-6.17v-113.28zm16.04 27.67c1.45 1.45 3.35 2.17 5.24 2.17s3.8-.72 5.24-2.17l16.46-16.46c2.9-2.9 2.9-7.59 0-10.49s-7.59-2.9-10.49 0l-16.45 16.47c-2.9 2.89-2.9 7.59 0 10.48zm27.46 73.87-16.46-16.46c-2.9-2.89-7.59-2.9-10.49 0s-2.9 7.59 0 10.49l16.46 16.46c1.45 1.45 3.35 2.17 5.24 2.17 1.9 0 3.8-.72 5.24-2.17 2.91-2.9 2.91-7.59.01-10.49zm22.79-45.27c0-4.1-3.32-7.42-7.42-7.42h-23.28c-4.1 0-7.42 3.32-7.42 7.42s3.32 7.42 7.42 7.42h23.28c4.1-.01 7.42-3.32 7.42-7.42zm-135.67 23.23 54.55 22.67v-91.06l-54.55 22.67zm-94.49 185.03h260.65v18.69c0 19.51-15.87 35.38-35.38 35.38h-164.73-99.79-164.72c-19.51 0-35.38-15.87-35.38-35.38v-18.69h198.39zm-148.46 24.97c0-10.79-8.78-19.57-19.57-19.57s-19.57 8.78-19.57 19.57 8.78 19.57 19.57 19.57 19.57-8.78 19.57-19.57zm190.43-244.07c-3.87 6.7-3.87 15.71 0 22.41 2.42 4.19 7.39 9.19 17.29 9.19h2.15.03 18.21v-40.79h-20.4c-9.89 0-14.86 5-17.28 9.19zm-44.15 68.72c-4.7-4.14-11.37-6.52-18.3-6.52-13.11 0-26.34 8.06-26.34 26.08v1.61h12.88c4.1 0 7.42 3.32 7.42 7.42s-3.32 7.42-7.42 7.42h-12.88v8.33h12.88c4.1 0 7.42 3.32 7.42 7.42s-3.32 7.42-7.42 7.42h-12.88v1.61c0 18.01 13.23 26.08 26.34 26.08s26.34-8.06 26.34-26.08v-41.21c0-8.18-2.78-14.94-8.04-19.58zm75.82 11.39 6.02 2.84v-36.52h-9.85zm-133.71-75.62c0 34.67-26.57 50.46-51.25 50.46-24.69 0-51.25-15.79-51.25-50.46s26.57-50.46 51.25-50.46 51.25 15.79 51.25 50.46zm-13.73 0c0-2.65-1.41-5.1-3.71-6.42l-46.59-26.9c-2.29-1.33-5.12-1.33-7.42 0-2.29 1.32-3.71 3.77-3.71 6.42v53.8c0 2.65 1.41 5.1 3.71 6.42 1.15.66 2.43.99 3.71.99s2.56-.33 3.71-.99l46.59-26.9c2.3-1.32 3.71-3.77 3.71-6.42zm-94.24 234.84c-2.61 0-4.74 2.13-4.74 4.74s2.13 4.74 4.74 4.74 4.74-2.13 4.74-4.74c.01-2.62-2.12-4.74-4.74-4.74zm136.21 48.67v53.21h84.96v-53.21z"></path></svg>