<svg xmlns="http://www.w3.org/2000/svg" height="512" viewBox="0 0 64 64" width="512"><g id="Processing"><path d="m31.1057 37.8494a3.5971 3.5971 0 0 1 .425-4.5713l1.8885-1.8881a3.5948 3.5948 0 0 1 4.5713-.4246l1.935 1.3236a1.7286 1.7286 0 0 1 .0908-.2869c.2579-.54 1.4732-3.2485 1.6856-3.595a3.5882 3.5882 0 0 1 3.0581-1.7147h2.67a3.5744 3.5744 0 0 1 .575.051 2.01 2.01 0 0 0 .0383-.3812v-3.7011a2.0179 2.0179 0 0 0 -1.6455-1.9824l-4.2891-.8047a1.832 1.832 0 0 1 -1.398-1.174 17.64 17.64 0 0 0 -.6944-1.6788 1.8368 1.8368 0 0 1 .1612-1.8173l2.4619-3.6a2.02 2.02 0 0 0 -.2383-2.5654l-2.6172-2.6167a2.0186 2.0186 0 0 0 -2.5654-.2388l-3.6 2.4629a1.8329 1.8329 0 0 1 -1.8174.16 17.4516 17.4516 0 0 0 -1.68-.6934 1.8356 1.8356 0 0 1 -1.1731-1.3997l-.8047-4.2881a2.0154 2.0154 0 0 0 -1.9814-1.6455h-3.7012a2.0181 2.0181 0 0 0 -1.9824 1.6451l-.8047 4.2885a1.8357 1.8357 0 0 1 -1.1736 1.3994 17.279 17.279 0 0 0 -1.6787.6934 1.837 1.837 0 0 1 -1.8183-.16l-3.6-2.4629a2.02 2.02 0 0 0 -2.5655.2388l-2.6161 2.617a2.02 2.02 0 0 0 -.2392 2.5654l2.4629 3.6a1.8352 1.8352 0 0 1 .16 1.8178 17.3743 17.3743 0 0 0 -.6943 1.6792 1.8327 1.8327 0 0 1 -1.3984 1.1731l-4.288.8047a2.0176 2.0176 0 0 0 -1.6456 1.9824v3.7011a2.0177 2.0177 0 0 0 1.6456 1.9825l4.2871.8042a1.8332 1.8332 0 0 1 1.3994 1.1748 17.4507 17.4507 0 0 0 .6943 1.6782 1.8355 1.8355 0 0 1 -.16 1.8179l-2.4629 3.6a2.0179 2.0179 0 0 0 .2392 2.5649l2.6162 2.6172a2.0182 2.0182 0 0 0 2.5655.2383l3.6-2.4624a1.8408 1.8408 0 0 1 1.8183-.16 17.1578 17.1578 0 0 0 1.6787.6939 1.8357 1.8357 0 0 1 1.1739 1.3994l.8047 4.2886a2.0181 2.0181 0 0 0 1.9824 1.645h3.7012a2.0011 2.0011 0 0 0 .7712-.159 3.5647 3.5647 0 0 1 -.1-.7956v-2.67a3.5969 3.5969 0 0 1 1.6492-3.0227 31.9678 31.9678 0 0 1 4.1349-1.5374zm-6.7947-5.73a7.6078 7.6078 0 1 1 7.6077-7.6076 7.6078 7.6078 0 0 1 -7.6077 7.6075z"></path><path d="m61.9643 43.5434-3.0942-.58a1.6825 1.6825 0 0 1 -1.2832-1.0815 12.0418 12.0418 0 0 0 -.4858-1.1764 1.6826 1.6826 0 0 1 .1433-1.67l1.7768-2.5973a1.0946 1.0946 0 0 0 -.1294-1.3919l-1.8882-1.8881a1.0943 1.0943 0 0 0 -1.3918-.1294l-2.5974 1.7766a1.6819 1.6819 0 0 1 -1.67.1433 12.16 12.16 0 0 0 -1.1763-.4857 1.6821 1.6821 0 0 1 -1.0815-1.2833l-.5806-3.0943a1.0948 1.0948 0 0 0 -1.0757-.8928h-2.6703a1.0948 1.0948 0 0 0 -1.0757.8928l-.5806 3.0943a1.6819 1.6819 0 0 1 -1.0813 1.2832 12.2 12.2 0 0 0 -1.1765.4858 1.682 1.682 0 0 1 -1.67-.1433l-2.5972-1.7766a1.0946 1.0946 0 0 0 -1.392.1294l-1.8881 1.8878a1.0946 1.0946 0 0 0 -.1294 1.3919l1.7768 2.5972a1.6824 1.6824 0 0 1 .1433 1.67 12.0623 12.0623 0 0 0 -.4858 1.1764 1.6825 1.6825 0 0 1 -1.2835 1.0815l-3.0942.58a1.0949 1.0949 0 0 0 -.8929 1.0759v2.67a1.0946 1.0946 0 0 0 .8929 1.0758l3.0942.58a1.6825 1.6825 0 0 1 1.2832 1.0816 12.05 12.05 0 0 0 .4858 1.1763 1.6821 1.6821 0 0 1 -.1433 1.67l-1.7768 2.5973a1.0946 1.0946 0 0 0 .1294 1.3919l1.8882 1.8882a1.0945 1.0945 0 0 0 1.392.1294l2.5972-1.7766a1.682 1.682 0 0 1 1.67-.1434 12.15 12.15 0 0 0 1.1765.4858 1.6822 1.6822 0 0 1 1.0813 1.2833l.5806 3.0942a1.0945 1.0945 0 0 0 1.0757.8927h2.67a1.0945 1.0945 0 0 0 1.0757-.8926l.5806-3.0944a1.6822 1.6822 0 0 1 1.0813-1.2832 12.1184 12.1184 0 0 0 1.1765-.4858 1.682 1.682 0 0 1 1.67.1434l2.5977 1.7772a1.0947 1.0947 0 0 0 1.392-.1294l1.8882-1.8882a1.0944 1.0944 0 0 0 .1294-1.3918l-1.7768-2.5974a1.6821 1.6821 0 0 1 -.1431-1.67 12.0988 12.0988 0 0 0 .4856-1.1763 1.6825 1.6825 0 0 1 1.2831-1.0812l3.0942-.58a1.0944 1.0944 0 0 0 .8929-1.0758v-2.67a1.0946 1.0946 0 0 0 -.8928-1.0765zm-15.8691 8.6235a6.2125 6.2125 0 1 1 6.2126-6.2126 6.2126 6.2126 0 0 1 -6.2126 6.2126z"></path></g></svg>