<svg xmlns="http://www.w3.org/2000/svg" clip-rule="evenodd" fill-rule="evenodd" height="512" viewBox="0 0 1707 1707" width="512"><g id="Layer_x0020_1"><path d="m1401 1229v-791c8 5 17 7 27 7h252c10 0 19-2 27-7v791c-8-5-18-7-27-7h-252c-10 0-19 2-27 7zm153-164c7 0 13-6 13-13v-437c0-7-6-13-13-13-8 0-14 6-14 13v437c0 7 6 13 14 13z"></path><path d="m1680 419h-252c-15 0-27-12-27-27v-125c0-84 68-152 152-152h2c84 0 152 68 152 152v125c0 15-12 27-27 27z"></path><path d="m1554 1591c-11 0-20-6-25-16l-126-289c-3-9-3-18 2-26 5-7 14-12 23-12h252c9 0 17 5 22 12 5 8 6 18 2 26l-126 289c-4 10-14 16-24 16z"></path><path d="m1215 1694h-976c-55 0-100-44-100-100v-1343c0-55 45-100 100-100h976c55 0 100 45 100 100v1343c0 56-45 100-100 100zm-168-1165c40 0 72-32 72-72 0-39-32-71-72-71-39 0-71 32-71 71 0 40 32 72 71 72zm-521 404c7 0 13-6 13-14v-88h230c8 0 14-6 14-14v-63h167c6 48 48 85 97 85 54 0 99-44 99-99 0-54-45-98-99-98-49 0-91 37-97 85h-167v-256h167c6 48 48 85 97 85 54 0 99-45 99-99s-45-98-99-98c-49 0-91 37-97 85h-167v-63c0-8-6-14-14-14-7 0-13 6-13 14v76 283 64h-217v-89c0-7-6-13-13-13h-89v-201h83c7 0 13-6 13-13v-118c0-7-6-13-13-13h-193c-7 0-13 6-13 13v118c0 7 6 13 13 13h83v201h-89c-7 0-13 6-13 13v204c0 8 6 14 13 14zm450-193c0-39 32-71 71-71 40 0 72 32 72 71 0 40-32 72-72 72-39 0-71-32-71-72zm-641 166v-178h88 89v89 1 88zm6-432v-90h165v90h-83zm335 1014c7 0 13-6 13-13s-6-13-13-13h-357c-7 0-13 6-13 13s6 13 13 13zm236-159c7 0 13-6 13-13s-6-13-13-13h-593c-7 0-13 6-13 13s6 13 13 13zm222-158c8 0 14-6 14-14 0-7-6-13-14-13h-815c-7 0-13 6-13 13 0 8 6 14 13 14z"></path><path d="m112 1556h-12c-55 0-100-45-100-100v-1344c0-55 45-100 100-100h976c55 0 100 45 100 100v12h-937c-70 0-127 57-127 127z"></path></g></svg>