<svg xmlns="http://www.w3.org/2000/svg" xmlns:xlink="http://www.w3.org/1999/xlink" id="Layer_1" viewBox="0 0 285.713 285.713" xml:space="preserve"><g>	<g>		<path style="fill:#F9BA48;" d="M219.048,133.333c0-42.081-34.11-76.19-76.19-76.19c-32.876,0-59.524,26.648-59.524,59.524   c0,4.595,0.571,9.052,1.557,13.348l-18.224,31.89l19.048,4.762V200h19.048v23.81h76.19v-24.586   C203.705,186.052,219.048,161.514,219.048,133.333z"></path>		<path style="fill:#333333;" d="M180.952,219.048h-14.286v-47.376c2.948-3.89,4.762-8.681,4.762-13.933v-1.19   c0-12.8-10.414-23.214-23.214-23.214H137.5c-7.548,0-13.69-6.143-13.69-13.69v-1.19c0-7.548,6.143-13.69,13.69-13.69h10.714   c7.548,0,13.69,6.143,13.69,13.69v0.595h9.524v-0.595c0-12.8-10.414-23.214-23.214-23.214h-0.595V80.952h-9.524v14.286H137.5   c-12.8,0-23.214,10.414-23.214,23.214v1.19c0,12.8,10.414,23.214,23.214,23.214h10.714c7.548,0,13.69,6.143,13.69,13.69v1.19   c0,7.548-6.143,13.69-13.69,13.69H137.5c-7.548,0-13.69-4.762-13.69-14.286h-9.524c0,4.762,1.814,10.633,4.762,14.529v47.376   h-14.286c-7.876,0-14.286,6.41-14.286,14.286c0,5.071,2.676,9.51,6.671,12.043c-1.181,2.081-1.91,4.448-1.91,7.005   c0,5.071,2.676,9.51,6.671,12.043c-1.181,2.081-1.91,4.448-1.91,7.005c0,7.876,6.41,14.286,14.286,14.286h57.143   c7.876,0,14.286-6.41,14.286-14.286c0-2.557-0.729-4.924-1.91-7.005c3.995-2.533,6.671-6.971,6.671-12.043   c0-2.557-0.729-4.924-1.91-7.005c3.995-2.533,6.671-6.971,6.671-12.043C195.238,225.457,188.829,219.048,180.952,219.048z    M128.571,179.157c2.752,1.152,5.767,1.795,8.929,1.795h0.595v14.286h9.524v-14.286h0.595c3.162,0,6.176-0.643,8.929-1.795v39.89   h-28.571v-39.89H128.571z M104.762,228.571h76.19c2.629,0,4.762,2.133,4.762,4.762s-2.133,4.762-4.762,4.762h-4.762h-66.667   h-4.762c-2.629,0-4.762-2.133-4.762-4.762C100,230.705,102.133,228.571,104.762,228.571z M180.952,252.381   c0,2.629-2.133,4.762-4.762,4.762h-4.762h-57.143h-4.762c-2.629,0-4.762-2.133-4.762-4.762s2.133-4.762,4.762-4.762h66.667   C178.819,247.619,180.952,249.752,180.952,252.381z M171.429,276.19h-57.143c-2.629,0-4.762-2.133-4.762-4.762   s2.133-4.762,4.762-4.762h57.143c2.629,0,4.762,2.133,4.762,4.762C176.19,274.057,174.057,276.19,171.429,276.19z"></path>		<rect x="138.095" style="fill:#333333;" width="9.524" height="33.333"></rect>					<rect x="79.762" y="15.632" transform="matrix(0.8661 -0.4999 0.4999 0.8661 -4.8271 46.5781)" style="fill:#333333;" width="9.524" height="33.334"></rect>					<rect x="37.057" y="58.339" transform="matrix(0.5 -0.866 0.866 0.5 -44.0468 73.7178)" style="fill:#333333;" width="9.524" height="33.332"></rect>		<rect x="9.524" y="128.571" style="fill:#333333;" width="33.333" height="9.524"></rect>					<rect x="25.146" y="186.91" transform="matrix(0.8661 -0.4999 0.4999 0.8661 -90.2159 46.5696)" style="fill:#333333;" width="33.334" height="9.524"></rect>					<rect x="239.136" y="175.011" transform="matrix(0.5 -0.866 0.866 0.5 -44.0498 307.0562)" style="fill:#333333;" width="9.524" height="33.332"></rect>		<rect x="242.857" y="128.571" style="fill:#333333;" width="33.333" height="9.524"></rect>					<rect x="227.229" y="70.245" transform="matrix(0.8661 -0.4999 0.4999 0.8661 -4.8349 131.9662)" style="fill:#333333;" width="33.334" height="9.524"></rect>					<rect x="184.517" y="27.53" transform="matrix(0.4999 -0.8661 0.8661 0.4999 72.646 190.3922)" style="fill:#333333;" width="33.334" height="9.524"></rect>	</g></g></svg>