<svg xmlns="http://www.w3.org/2000/svg" xmlns:xlink="http://www.w3.org/1999/xlink" id="Layer_1" x="0px" y="0px" viewBox="0 0 512 512" style="enable-background:new 0 0 512 512;" xml:space="preserve"><style type="text/css">	.st0{fill:#212133;}</style><g id="Solid">	<path class="st0" d="M224,424v-64c0-8.8-7.2-16-16-16h-40c-4.4,0-8-3.6-8-8v-17.1l-35.6,23.7c-1.3,0.9-2.9,1.3-4.4,1.3H48  c-8.8,0-16,7.2-16,16v64c0,8.8,7.2,16,16,16h160C216.8,440,224,432.8,224,424z M176,368h32v16h-32V368z M48,368h112v16H48V368z   M96,416H48v-16h48V416z M112,400h96v16h-96V400z"></path>	<path class="st0" d="M48,192h72c1.6,0,3.1,0.5,4.4,1.3l35.6,23.7V200c0-4.4,3.6-8,8-8h40c8.8,0,16-7.2,16-16V48c0-8.8-7.2-16-16-16  H48c-8.8,0-16,7.2-16,16v128C32,184.8,39.2,192,48,192z M64,104c0-4.4,3.6-8,8-8h28.7L112,84.7V64c0-8.8,7.2-16,16-16  c17.7,0,32,14.3,32,32v16h12.8c10.6,0,19.2,8.6,19.2,19.2v41.6c0,10.6-8.6,19.2-19.2,19.2H72c-4.4,0-8-3.6-8-8V104z"></path>	<rect x="80" y="112" class="st0" width="16" height="48"></rect>	<path class="st0" d="M320,80h46.5c-3.4-9.6-12.4-16-22.5-16H240v32h52.5C298.1,86.1,308.6,80,320,80z"></path>	<path class="st0" d="M176,156.8v-41.6c0-1.8-1.4-3.2-3.2-3.2H136V96h8V80c0-8.8-7.2-16-16-16v24c0,2.1-0.8,4.2-2.3,5.7L112,107.3  V160h60.8C174.6,160,176,158.6,176,156.8z"></path>	<path class="st0" d="M464,96H320c-8.8,0-16,7.2-16,16v112c0,8.8,7.2,16,16,16h8c4.4,0,8,3.6,8,8v17.1l35.6-23.7  c1.3-0.9,2.9-1.3,4.4-1.3h88c8.8,0,16-7.2,16-16V112C480,103.2,472.8,96,464,96z M441.8,187.2l-44.9,35.1c-2.9,2.3-7,2.3-9.9,0  l-44.9-35.1c-14.4-11.3-18.5-32.3-9.4-48.8c4.8-9.2,13.5-15.7,23.7-17.7c9.7-1.8,19.6,0.8,27.2,7.1l8.4,6.9l8.4-6.9  c7.5-6.3,17.5-8.9,27.1-7.1c10.1,2.1,18.8,8.6,23.7,17.7C460.3,154.9,456.2,175.9,441.8,187.2z"></path>	<path class="st0" d="M396.8,256H384v84.7l29.7,29.7l-11.3,11.3l-60-60c-7.9-8-20.7-8.1-28.7-0.2s-8.1,20.7-0.2,28.7  c0.1,0.1,0.1,0.1,0.2,0.2l44,44c2.7,2.7,3.1,6.9,1,10.1l-3.6,5.4c-14.2,21.4-13.8,49.2,1,70.2h84V336.3c0-17.4-6.3-34.3-17.8-47.4  L396.8,256z"></path>	<path class="st0" d="M291.7,336c0-20.1,16.3-36.3,36.4-36.3c9.6,0,18.8,3.8,25.6,10.6l14.3,14.3v-61.7l-35.6,23.7  c-3.7,2.5-8.6,1.5-11.1-2.2c-0.9-1.3-1.3-2.9-1.3-4.4v-24c-17.7,0-32-14.3-32-32V112h-48v64c0,17.7-14.3,32-32,32h-32v24  c0,4.4-3.6,8-8,8c-1.6,0-3.1-0.5-4.4-1.3l-19.6-13v84.8l19.6-13c3.7-2.5,8.6-1.5,11.1,2.2c0.9,1.3,1.3,2.9,1.3,4.4v24h32  c17.7,0,32,14.3,32,32v56h94c2-5.3,4.6-10.3,7.7-15l-39.3-39.3C295.5,354.9,291.7,345.6,291.7,336z"></path>	<path class="st0" d="M424.5,136.3c-5-0.9-10.1,0.4-14,3.7l-13.5,11.1c-3,2.4-7.2,2.4-10.2,0L373.5,140c-3.8-3.3-9-4.7-14-3.7  c-5.5,1.2-10.1,4.7-12.7,9.7c-5.2,9.6-2.9,22.1,5.3,28.6l39.9,31.3l39.9-31.3c8.2-6.4,10.5-19,5.3-28.6  C434.6,141,430,137.5,424.5,136.3z"></path>	<path class="st0" d="M329.7,432h-90.8c-3.6,14.1-16.3,24-30.9,24h-64c0,13.2,10.8,24,24,24h169.4  C329.8,465.2,327.1,448.4,329.7,432z M264,464h-16v-16h16V464z"></path></g></svg>