<svg xmlns="http://www.w3.org/2000/svg" height="512pt" viewBox="0 -5 512 512" width="512pt"><path d="m47.851562 250.921875v-47.808594c0-26.242187 21.34375-47.597656 47.597657-47.597656h321.101562c26.253907 0 47.597657 21.355469 47.597657 47.597656v49.542969c28.316406-13.613281 47.851562-42.550781 47.851562-76.058594 0-46.570312-37.75-84.320312-84.320312-84.320312-17.75 0-34.207032 5.5-47.789063 14.859375-11-60.925781-64.289063-107.136719-128.375-107.136719-58.585937 0-108.152344 38.617188-124.632813 91.777344-11.527343-5.46875-24.421874-8.546875-38.035156-8.546875-49.066406 0-88.847656 39.78125-88.847656 88.851562 0 34.277344 19.417969 64.023438 47.851562 78.839844zm0 0"></path><path d="m432.417969 260.800781v-57.6875c0-8.746093-7.109375-15.863281-15.867188-15.863281h-321.101562c-8.757813 0-15.867188 7.117188-15.867188 15.863281v198.746094h352.835938zm-231.492188 83.730469c6.132813 6.261719 6.027344 16.308594-.234375 22.445312-6.214844 6.085938-16.265625 6.058594-22.433594-.234374l-54.355468-55.488282c-6.09375-6.207031-6.039063-16.160156.105468-22.316406 33.910157-33.898438 21.394532-21.382812 54.367188-54.355469 6.1875-6.199219 16.234375-6.199219 22.433594 0 6.199218 6.1875 6.199218 16.234375 0 22.433594-15.734375 15.734375-2.265625 2.269531-43.261719 43.25 26.820313 27.371094 26.417969 26.960937 43.378906 44.265625zm91.164063-93.003906c-5.554688 14.3125-36.117188 93.136718-42.59375 109.84375-3.125 8.078125-12.234375 12.261718-20.53125 9.0625-8.164063-3.171875-12.21875-12.363282-9.054688-20.527344 12.933594-33.355469 29.878906-77.050781 42.59375-109.847656 3.164063-8.164063 12.355469-12.226563 20.53125-9.050782 8.164063 3.160157 12.21875 12.351563 9.054688 20.519532zm95.902344 60.964844-54.367188 54.367187c-6.195312 6.195313-16.246094 6.1875-22.433594 0-6.199218-6.199219-6.199218-16.246094 0-22.445313 14.523438-14.523437 5.65625-5.65625 43.261719-43.25-1.578125-1.613281-41.808594-42.660156-43.378906-44.265624-6.132813-6.261719-6.027344-16.300782.234375-22.433594 6.261718-6.136719 16.300781-6.027344 22.433594.222656 32.039062 32.710938 20.015624 20.4375 54.355468 55.488281 6.09375 6.207031 6.039063 16.171875-.105468 22.316407zm0 0"></path><path d="m288.652344 483.230469h-65.304688c-25.324218 0-48.335937-19.898438-48.335937-49.640625-3.875 0-157.832031 0-162.433594 0v31.574218c0 19.832032 16.128906 35.960938 35.960937 35.960938h414.921876c19.832031 0 35.960937-16.128906 35.960937-35.960938v-31.574218c-3.460937 0-158.964844 0-162.433594 0 0 29.863281-23.125 49.640625-48.335937 49.640625zm0 0"></path><path d="m223.347656 451.5h65.304688c8.15625 0 16.605468-6.023438 16.605468-17.910156h-98.515624c0 11.714844 8.304687 17.910156 16.605468 17.910156zm0 0"></path></svg>