<svg xmlns="http://www.w3.org/2000/svg" xmlns:xlink="http://www.w3.org/1999/xlink" id="Layer_1" x="0px" y="0px" viewBox="0 0 512 512" style="enable-background:new 0 0 512 512;" xml:space="preserve"><g>	<g>		<path d="M163.201,432.734c-7.947-17.101-14.6-36.199-19.87-56.734H29.735c11.804,22.189,26.97,42.744,45.245,61.02   C123.333,485.371,187.62,512,256,512C219.913,512,186.956,483.85,163.201,432.734z"></path>	</g></g><g>	<g>		<path d="M74.98,74.98C56.705,93.256,41.539,113.811,29.735,136h113.596c5.27-20.536,11.923-39.633,19.87-56.734   C186.956,28.15,219.913,0,256,0C187.62,0,123.333,26.629,74.98,74.98z"></path>	</g></g><g>	<g>		<path d="M0,166v180h512V166H0z M414.62,300h-19.44l-12.119-30.48l-12,30.48h-19.44l-32.04-81.827L287.541,300h-19.44   l-12.119-30.48l-12,30.48h-19.44l-32.04-81.827L160.462,300h-19.44l-12.119-30.48l-12,30.48h-19.44l-33.36-85.2h25.32l18.48,58.44   l5.88-17.76L99.981,214.8h21.48l7.44,26.28l7.56-26.28h21.479l-14.039,40.681l6.119,17.76l18.36-58.44h22.799h2.642H216.5   l18.48,58.44l5.88-17.76L227.061,214.8h21.48l7.44,26.28l7.56-26.28h21.479l-14.039,40.681l6.119,17.76l18.36-58.44h22.799h2.642   h22.679l18.48,58.44l5.88-17.76l-13.8-40.681h21.48l7.44,26.28l7.56-26.28h21.48l-14.039,40.681l6.119,17.76l18.36-58.44h25.44   L414.62,300z"></path>	</g></g><g>	<g>		<path d="M437.02,74.98C388.667,26.629,324.38,0,256,0c36.087,0,69.044,28.15,92.799,79.266c7.947,17.101,14.6,36.199,19.87,56.734   h113.596C470.461,113.811,455.295,93.256,437.02,74.98z"></path>	</g></g><g>	<g>		<path d="M368.669,376c-5.27,20.536-11.923,39.633-19.87,56.734C325.044,483.85,292.087,512,256,512   c68.38,0,132.667-26.629,181.02-74.98c18.275-18.276,33.441-38.831,45.245-61.02H368.669z"></path>	</g></g><g>	<g>		<path d="M321.592,91.909C303.309,52.564,279.401,30,256,30s-47.309,22.564-65.593,61.909   c-6.231,13.409-11.598,28.213-16.047,44.091h163.278C333.189,120.122,327.823,105.318,321.592,91.909z"></path>	</g></g><g>	<g>		<path d="M174.361,376c4.449,15.878,9.815,30.682,16.047,44.091C208.691,459.436,232.599,482,256,482s47.309-22.564,65.593-61.909   c6.231-13.409,11.598-28.213,16.046-44.091H174.361z"></path>	</g></g><g></g><g></g><g></g><g></g><g></g><g></g><g></g><g></g><g></g><g></g><g></g><g></g><g></g><g></g><g></g></svg>